<mxfile host="app.diagrams.net" modified="2023-05-30T20:21:05.270Z" agent="Mozilla/5.0 (Macintosh; Intel Mac OS X 10_15_7) AppleWebKit/537.36 (KHTML, like Gecko) Chrome/113.0.0.0 Safari/537.36" version="21.3.6" etag="HdQl5_g9e48fz38KbGtt" type="github">
  <diagram name="Page-1" id="al6ioRYCFTCA5-fEtjZb">
    <mxGraphModel>
      <root>
        <mxCell id="0" />
        <mxCell id="1" parent="0" />
      </root>
    </mxGraphModel>
  </diagram>
</mxfile>
